# xmcd
#
# Track frame offsets:
# 150
# 11100
# 29352
# 40895
# 53307
# 60787
# 76480
# 93090
# 105705
# 116872
# 130655
# 141557
# 154775
# 171455
# 198990
#
# Disc length: 2878 seconds
#
#
# Revision: 9
# Processed by: cddbd v1.5.2PL0 Copyright (c) Steve Scherf et al.
# Submitted via: FreeRIP 2.945 
#
DISCID=c20b3c0f
DTITLE=Waylon Jennings - This Time
DYEAR=1974
DGENRE=Country
TTITLE0=This Time
TTITLE1=Louisiana Women
TTITLE2=Pick Up The Tempo
TTITLE3=Slow Rollin' Low
TTITLE4=Heaven Or Hell
TTITLE5=It's Not Supposed To Be That Way
TTITLE6=Slow Movin' Outlaw
TTITLE7=Mona
TTITLE8=Walkin'
TTITLE9=If You Could Touch Her At All
TTITLE10=That'll Be The Day (Bonus Track - not on original album)
TTITLE11=It Doesn't Matter Anymore (Bonus Track - not on original album)
TTITLE12=Lady In The Harbor (Bonus Track - not on original album)
TTITLE13=Medley: Well All Right - It's So Easy - Maybe Baby - Peggy Sue (Bonus Track - not on original album)
TTITLE14=If You're Goin' Girl (Bonus Track - not on original album)
EXTD=
EXTT0=
EXTT1=
EXTT2=
EXTT3=
EXTT4=
EXTT5=
EXTT6=
EXTT7=
EXTT8=
EXTT9=
EXTT10=
EXTT11=
EXTT12=
EXTT13=
EXTT14=
PLAYORDER=
